<svg width="41" height="47" viewBox="0 0 41 47" fill="none" xmlns="http://www.w3.org/2000/svg">
<path fill-rule="evenodd" clip-rule="evenodd" d="M27.2644 3.62586C27.4645 1.83789 26.1969 0.223392 24.409 0.0232469C22.621 -0.190241 21.0065 1.09069 20.8063 2.87865C20.5662 4.92013 20.8997 7.36189 21.3267 9.87038C22.5142 10.2306 23.6617 10.751 24.7292 11.3648C25.8767 8.65616 26.9975 5.97422 27.2644 3.62586ZM39.8201 11.4715C39.1129 9.81701 37.1915 9.0698 35.537 9.77698C33.3621 10.7243 31.1071 12.579 28.8388 14.4871C29.6928 15.3277 30.4934 16.275 31.1739 17.3024C33.7491 16.9822 36.2175 16.5952 38.1256 15.768C39.7801 15.0341 40.5406 13.1127 39.8201 11.4715ZM34.3361 2.74522C32.8951 1.67778 30.8536 1.97132 29.7862 3.41237C28.1583 5.60062 27.0642 8.86965 25.8767 12.0586C26.277 12.3255 26.6506 12.5923 27.0108 12.8726C27.2777 13.086 27.5579 13.3129 27.8381 13.5397C30.5601 11.4849 33.3888 9.48343 35.0166 7.29518C36.0841 5.85414 35.7772 3.81266 34.3361 2.74522Z" fill="#53B175"/>
<path d="M28.1451 28.8708C27.1444 29.9516 26.077 30.9523 24.9428 31.9263C23.355 33.3007 21.7405 34.635 20.0993 35.9159C18.338 34.8351 17.0704 34.2881 16.857 34.5683C16.6702 34.8218 17.404 35.7558 18.725 36.97C14.2951 40.2657 9.61171 43.1745 4.5814 45.5629C3.79417 45.9365 2.9669 46.2033 2.15298 46.4969C1.93949 46.577 1.71266 46.577 1.61926 46.5903C0.33833 46.7371 -0.0486165 46.3901 0.00475546 45.216C0.164871 41.56 1.29903 38.1308 2.47321 34.715C2.79344 33.781 3.12702 32.847 3.47393 31.913C5.24855 32.9938 6.51614 33.5542 6.72963 33.274C6.95646 32.9671 5.88902 31.7395 4.10106 30.2051C5.38198 26.896 6.80968 23.6403 8.4909 20.5181C11.8533 23.0132 14.8422 24.6544 15.1757 24.2007C15.5093 23.7471 13.0409 21.332 9.6384 18.8102L9.49163 18.7034C10.0787 17.7027 10.6925 16.702 11.3463 15.7279C12.1602 14.5004 13.1609 13.3796 14.1483 12.2855C15.4693 10.8311 17.1772 10.3374 19.0852 10.7644C25.1963 12.1253 29.4394 15.6345 31.4409 21.6522C31.8411 22.8798 31.4809 24.0807 30.8538 25.1881C30.4268 25.9353 29.9598 26.6425 29.4394 27.3097C26.2104 24.948 23.4084 23.4269 23.0881 23.8538C22.7812 24.2808 25.0095 26.4824 28.1451 28.8708Z" fill="#53B175"/>
</svg>
