<svg width="211" height="56" viewBox="0 0 211 56" fill="none" xmlns="http://www.w3.org/2000/svg">
<path fill-rule="evenodd" clip-rule="evenodd" d="M27.2644 3.62586C27.4645 1.83789 26.1969 0.223392 24.409 0.0232469C22.621 -0.190241 21.0065 1.09069 20.8063 2.87865C20.5662 4.92013 20.8997 7.36189 21.3267 9.87038C22.5142 10.2306 23.6617 10.751 24.7292 11.3648C25.8767 8.65616 26.9975 5.97422 27.2644 3.62586ZM39.8201 11.4715C39.1129 9.81701 37.1915 9.0698 35.537 9.77698C33.3621 10.7243 31.1071 12.579 28.8388 14.4871C29.6928 15.3277 30.4934 16.275 31.1739 17.3024C33.7491 16.9822 36.2175 16.5952 38.1256 15.768C39.7801 15.0341 40.5406 13.1127 39.8201 11.4715ZM34.3361 2.74522C32.8951 1.67778 30.8536 1.97132 29.7862 3.41237C28.1583 5.60062 27.0642 8.86965 25.8767 12.0586C26.277 12.3255 26.6506 12.5923 27.0108 12.8726C27.2777 13.086 27.5579 13.3129 27.8381 13.5397C30.5601 11.4849 33.3888 9.48343 35.0166 7.29518C36.0841 5.85414 35.7772 3.81266 34.3361 2.74522Z" fill="#53B175"/>
<path d="M28.1451 28.8708C27.1444 29.9516 26.077 30.9523 24.9428 31.9263C23.355 33.3007 21.7405 34.635 20.0993 35.9159C18.338 34.8351 17.0704 34.2881 16.857 34.5683C16.6702 34.8218 17.404 35.7558 18.725 36.97C14.2951 40.2657 9.61171 43.1745 4.5814 45.5629C3.79417 45.9365 2.9669 46.2033 2.15298 46.4969C1.93949 46.577 1.71266 46.577 1.61926 46.5903C0.33833 46.7371 -0.0486165 46.3901 0.00475546 45.216C0.164871 41.56 1.29903 38.1308 2.47321 34.715C2.79344 33.781 3.12702 32.847 3.47393 31.913C5.24855 32.9938 6.51614 33.5542 6.72963 33.274C6.95646 32.9671 5.88902 31.7395 4.10106 30.2051C5.38198 26.896 6.80968 23.6403 8.4909 20.5181C11.8533 23.0132 14.8422 24.6544 15.1757 24.2007C15.5093 23.7471 13.0409 21.332 9.6384 18.8102L9.49163 18.7034C10.0787 17.7027 10.6925 16.702 11.3463 15.7279C12.1602 14.5004 13.1609 13.3796 14.1483 12.2855C15.4693 10.8311 17.1772 10.3374 19.0852 10.7644C25.1963 12.1253 29.4394 15.6345 31.4409 21.6522C31.8411 22.8798 31.4809 24.0807 30.8538 25.1881C30.4268 25.9353 29.9598 26.6425 29.4394 27.3097C26.2104 24.948 23.4084 23.4269 23.0881 23.8538C22.7812 24.2808 25.0095 26.4824 28.1451 28.8708Z" fill="#53B175"/>
<path d="M67.5071 7.11487C63.2773 7.11487 60.5287 8.80943 58.8608 12.0251H58.7674V10.0236C58.7674 8.5826 57.5932 7.42176 56.1522 7.42176C54.7111 7.42176 53.5503 8.5826 53.5503 10.0236V32.1597C53.5503 33.6007 54.7111 34.7749 56.1522 34.7749H56.4057C57.8467 34.7749 59.0209 33.6007 59.0209 32.1597V18.9768C59.0209 14.667 61.4894 11.7983 65.6124 11.7983C69.6153 11.7983 71.5367 14.1199 71.5367 18.2696V32.1597C71.5367 33.6007 72.6975 34.7749 74.1385 34.7749H74.3921C75.8331 34.7749 76.9939 33.6007 76.9939 32.1597V17.2422C76.9939 10.9443 73.5514 7.11487 67.5071 7.11487Z" fill="#53B175"/>
<path d="M93.8726 7.06146C86.2271 7.06146 81.2368 12.6388 81.2368 21.1917C81.2368 29.7579 86.1737 35.0951 94.0995 35.0951C99.0097 35.0951 103.066 32.9202 104.894 29.5311C105.574 28.2902 104.64 26.7557 103.226 26.7557H101.838C101.145 26.7557 100.544 27.156 100.184 27.7564C99.1298 29.5711 96.9148 30.6652 94.2062 30.6652C89.723 30.6652 86.7475 27.543 86.7475 22.8062V22.486H104.227C105.268 22.486 106.122 21.632 106.122 20.5913V20.5646C106.122 12.2786 101.385 7.06146 93.8726 7.06146ZM86.7742 18.6032C87.081 14.4001 89.9231 11.518 93.8593 11.518C97.8355 11.518 100.531 14.3467 100.651 18.6032H86.7742Z" fill="#53B175"/>
<path d="M131.567 25.5815H130.112C129.325 25.5815 128.645 26.0752 128.351 26.8091C127.404 29.2242 125.242 30.5184 122.173 30.5184C117.783 30.5184 114.821 26.9826 114.821 21.0983C114.821 15.3475 117.743 11.6781 122.147 11.6781C125.322 11.6781 127.444 13.2526 128.311 15.4942C128.605 16.2414 129.285 16.7618 130.099 16.7618H131.553C132.821 16.7618 133.768 15.5209 133.355 14.3201C131.954 10.1971 127.951 7.06146 122.093 7.06146C114.368 7.06146 109.271 12.5855 109.271 21.0983C109.271 29.7579 114.381 35.0951 122.147 35.0951C127.711 35.0951 131.847 32.3731 133.368 28.0633C133.795 26.8491 132.861 25.5815 131.567 25.5815Z" fill="#53B175"/>
<path d="M147.952 30.4784C147.858 30.4651 147.752 30.4518 147.658 30.4518C145.857 30.2383 145.016 29.1175 145.016 27.0093V11.7315H148.099C149.3 11.7315 150.26 10.7575 150.26 9.56997C150.26 8.38245 149.3 7.42175 148.099 7.42175H145.016V3.9926C145.016 3.24539 144.71 2.5649 144.216 2.07121C143.722 1.57752 143.055 1.27063 142.294 1.27063C140.8 1.27063 139.586 2.49819 139.586 3.9926V7.42175H137.958C136.77 7.42175 135.796 8.38245 135.796 9.56997C135.796 10.7575 136.77 11.7315 137.958 11.7315H139.586V27.5697C139.586 32.8535 141.694 34.9484 147.165 34.9484C147.178 34.9484 147.191 34.9484 147.191 34.9484C147.818 34.9484 148.392 34.7616 148.873 34.428C148.886 34.428 148.899 34.4146 148.899 34.4146C149.46 34.0143 149.833 33.3605 149.833 32.6267C149.833 31.5325 149.019 30.6119 147.952 30.4784Z" fill="#53B175"/>
<path d="M165.698 7.06146C161.428 7.06146 157.906 8.79605 156.104 11.478C155.811 11.9317 155.664 12.4253 155.664 12.9057C155.664 14.24 156.732 15.4809 158.239 15.4809C159.12 15.4809 159.961 15.0139 160.374 14.24C161.255 12.5855 163.136 11.5714 165.551 11.5714C169.207 11.5714 171.289 13.2926 171.289 16.4149V16.7485C171.289 17.7492 170.515 18.5765 169.514 18.6298L163.91 18.9501C157.159 19.377 153.463 22.1524 153.463 26.9425C153.463 31.8261 157.239 35.0417 162.709 35.0417C166.432 35.0417 169.834 33.187 171.342 30.2116H171.462V32.1596C171.462 32.8802 171.756 33.534 172.223 34.0143C172.703 34.4813 173.357 34.7749 174.077 34.7749C175.519 34.7749 176.679 33.6007 176.679 32.1596V16.0146C176.679 10.5974 172.37 7.06146 165.698 7.06146ZM171.289 24.5008C171.289 28.09 168.22 30.6919 164.164 30.6919C161.015 30.6919 158.973 29.1841 158.973 26.8358C158.973 24.4207 160.921 23.033 164.644 22.8062L171.289 22.3525V24.5008Z" fill="#53B175"/>
<path d="M194.092 7.14154C190.863 7.14154 188.355 8.98287 187.487 12.0251H187.394V10.0236C187.394 8.58258 186.22 7.42174 184.792 7.42174C183.351 7.42174 182.177 8.58258 182.177 10.0236V32.0396C182.177 32.7868 182.484 33.4806 182.977 33.9743C183.471 34.468 184.152 34.7749 184.912 34.7749C186.42 34.7749 187.647 33.5473 187.647 32.0396V18.4564C187.647 14.6003 189.916 12.1051 193.518 12.1051C193.665 12.1051 193.825 12.1051 193.972 12.1185C195.093 12.1585 196 11.2378 196 10.117V9.06293C196 8.00884 195.146 7.14154 194.092 7.14154Z" fill="#53B175"/>
<path d="M149.833 32.6266C149.833 33.3605 149.46 34.0143 148.899 34.4146C148.899 34.4146 148.886 34.4279 148.873 34.4279C148.526 34.6681 148.112 34.8015 147.658 34.8015C146.444 34.8015 145.47 33.8275 145.47 32.6266C145.47 31.4258 146.444 30.4517 147.658 30.4517C147.752 30.4517 147.859 30.4651 147.952 30.4784C149.019 30.6118 149.833 31.5325 149.833 32.6266Z" fill="#53B175"/>
<path d="M56.8877 51.108C56.2717 51.108 55.7117 50.968 55.2077 50.688C54.7117 50.408 54.3197 50.012 54.0317 49.5C53.7517 48.98 53.6117 48.38 53.6117 47.7C53.6117 47.028 53.7557 46.436 54.0437 45.924C54.3397 45.404 54.7397 45.008 55.2437 44.736C55.7477 44.456 56.3117 44.316 56.9357 44.316C57.5597 44.316 58.1237 44.456 58.6277 44.736C59.1317 45.008 59.5277 45.4 59.8157 45.912C60.1117 46.424 60.2597 47.02 60.2597 47.7C60.2597 48.38 60.1077 48.98 59.8037 49.5C59.5077 50.012 59.1037 50.408 58.5917 50.688C58.0797 50.968 57.5117 51.108 56.8877 51.108ZM56.8877 50.148C57.2797 50.148 57.6477 50.056 57.9917 49.872C58.3357 49.688 58.6117 49.412 58.8197 49.044C59.0357 48.676 59.1437 48.228 59.1437 47.7C59.1437 47.172 59.0397 46.724 58.8317 46.356C58.6237 45.988 58.3517 45.716 58.0157 45.54C57.6797 45.356 57.3157 45.264 56.9237 45.264C56.5237 45.264 56.1557 45.356 55.8197 45.54C55.4917 45.716 55.2277 45.988 55.0277 46.356C54.8277 46.724 54.7277 47.172 54.7277 47.7C54.7277 48.236 54.8237 48.688 55.0157 49.056C55.2157 49.424 55.4797 49.7 55.8077 49.884C56.1357 50.06 56.4957 50.148 56.8877 50.148ZM67.8995 44.304C68.6995 44.304 69.3475 44.548 69.8435 45.036C70.3395 45.516 70.5875 46.212 70.5875 47.124V51H69.5075V47.28C69.5075 46.624 69.3435 46.124 69.0155 45.78C68.6875 45.428 68.2395 45.252 67.6715 45.252C67.0955 45.252 66.6355 45.432 66.2915 45.792C65.9555 46.152 65.7875 46.676 65.7875 47.364V51H64.6955V44.424H65.7875V45.36C66.0035 45.024 66.2955 44.764 66.6635 44.58C67.0395 44.396 67.4515 44.304 67.8995 44.304ZM76.4633 42.12V51H75.3713V42.12H76.4633ZM81.8884 43.356C81.6804 43.356 81.5044 43.284 81.3604 43.14C81.2164 42.996 81.1444 42.82 81.1444 42.612C81.1444 42.404 81.2164 42.228 81.3604 42.084C81.5044 41.94 81.6804 41.868 81.8884 41.868C82.0884 41.868 82.2564 41.94 82.3924 42.084C82.5364 42.228 82.6084 42.404 82.6084 42.612C82.6084 42.82 82.5364 42.996 82.3924 43.14C82.2564 43.284 82.0884 43.356 81.8884 43.356ZM82.4164 44.424V51H81.3244V44.424H82.4164ZM90.4815 44.304C91.2815 44.304 91.9295 44.548 92.4255 45.036C92.9215 45.516 93.1695 46.212 93.1695 47.124V51H92.0895V47.28C92.0895 46.624 91.9255 46.124 91.5975 45.78C91.2695 45.428 90.8215 45.252 90.2535 45.252C89.6775 45.252 89.2175 45.432 88.8735 45.792C88.5375 46.152 88.3695 46.676 88.3695 47.364V51H87.2775V44.424H88.3695V45.36C88.5855 45.024 88.8775 44.764 89.2455 44.58C89.6215 44.396 90.0335 44.304 90.4815 44.304ZM103.953 47.46C103.953 47.668 103.941 47.888 103.917 48.12H98.6613C98.7013 48.768 98.9213 49.276 99.3213 49.644C99.7293 50.004 100.221 50.184 100.797 50.184C101.269 50.184 101.661 50.076 101.973 49.86C102.293 49.636 102.517 49.34 102.645 48.972H103.821C103.645 49.604 103.293 50.12 102.765 50.52C102.237 50.912 101.581 51.108 100.797 51.108C100.173 51.108 99.6133 50.968 99.1173 50.688C98.6293 50.408 98.2453 50.012 97.9653 49.5C97.6853 48.98 97.5453 48.38 97.5453 47.7C97.5453 47.02 97.6813 46.424 97.9533 45.912C98.2253 45.4 98.6053 45.008 99.0933 44.736C99.5893 44.456 100.157 44.316 100.797 44.316C101.421 44.316 101.973 44.452 102.453 44.724C102.933 44.996 103.301 45.372 103.557 45.852C103.821 46.324 103.953 46.86 103.953 47.46ZM102.825 47.232C102.825 46.816 102.733 46.46 102.549 46.164C102.365 45.86 102.113 45.632 101.793 45.48C101.481 45.32 101.133 45.24 100.749 45.24C100.197 45.24 99.7253 45.416 99.3333 45.768C98.9493 46.12 98.7293 46.608 98.6733 47.232H102.825ZM117.306 44.316C117.874 44.316 118.37 44.44 118.794 44.688C119.226 44.936 119.546 45.248 119.754 45.624V44.424H120.858V51.144C120.858 51.744 120.73 52.276 120.474 52.74C120.218 53.212 119.85 53.58 119.37 53.844C118.898 54.108 118.346 54.24 117.714 54.24C116.85 54.24 116.13 54.036 115.554 53.628C114.978 53.22 114.638 52.664 114.534 51.96H115.614C115.734 52.36 115.982 52.68 116.358 52.92C116.734 53.168 117.186 53.292 117.714 53.292C118.314 53.292 118.802 53.104 119.178 52.728C119.562 52.352 119.754 51.824 119.754 51.144V49.764C119.538 50.148 119.218 50.468 118.794 50.724C118.37 50.98 117.874 51.108 117.306 51.108C116.722 51.108 116.19 50.964 115.71 50.676C115.238 50.388 114.866 49.984 114.594 49.464C114.322 48.944 114.186 48.352 114.186 47.688C114.186 47.016 114.322 46.428 114.594 45.924C114.866 45.412 115.238 45.016 115.71 44.736C116.19 44.456 116.722 44.316 117.306 44.316ZM119.754 47.7C119.754 47.204 119.654 46.772 119.454 46.404C119.254 46.036 118.982 45.756 118.638 45.564C118.302 45.364 117.93 45.264 117.522 45.264C117.114 45.264 116.742 45.36 116.406 45.552C116.07 45.744 115.802 46.024 115.602 46.392C115.402 46.76 115.302 47.192 115.302 47.688C115.302 48.192 115.402 48.632 115.602 49.008C115.802 49.376 116.07 49.66 116.406 49.86C116.742 50.052 117.114 50.148 117.522 50.148C117.93 50.148 118.302 50.052 118.638 49.86C118.982 49.66 119.254 49.376 119.454 49.008C119.654 48.632 119.754 48.196 119.754 47.7ZM126.795 45.492C126.987 45.116 127.259 44.824 127.611 44.616C127.971 44.408 128.407 44.304 128.919 44.304V45.432H128.631C127.407 45.432 126.795 46.096 126.795 47.424V51H125.703V44.424H126.795V45.492ZM136.048 51.108C135.432 51.108 134.872 50.968 134.368 50.688C133.872 50.408 133.48 50.012 133.192 49.5C132.912 48.98 132.772 48.38 132.772 47.7C132.772 47.028 132.916 46.436 133.204 45.924C133.5 45.404 133.9 45.008 134.404 44.736C134.908 44.456 135.472 44.316 136.096 44.316C136.72 44.316 137.284 44.456 137.788 44.736C138.292 45.008 138.688 45.4 138.976 45.912C139.272 46.424 139.42 47.02 139.42 47.7C139.42 48.38 139.268 48.98 138.964 49.5C138.668 50.012 138.264 50.408 137.752 50.688C137.24 50.968 136.672 51.108 136.048 51.108ZM136.048 50.148C136.44 50.148 136.808 50.056 137.152 49.872C137.496 49.688 137.772 49.412 137.98 49.044C138.196 48.676 138.304 48.228 138.304 47.7C138.304 47.172 138.2 46.724 137.992 46.356C137.784 45.988 137.512 45.716 137.176 45.54C136.84 45.356 136.476 45.264 136.084 45.264C135.684 45.264 135.316 45.356 134.98 45.54C134.652 45.716 134.388 45.988 134.188 46.356C133.988 46.724 133.888 47.172 133.888 47.7C133.888 48.236 133.984 48.688 134.176 49.056C134.376 49.424 134.64 49.7 134.968 49.884C135.296 50.06 135.656 50.148 136.048 50.148ZM143.448 47.7C143.448 47.02 143.584 46.428 143.856 45.924C144.128 45.412 144.504 45.016 144.984 44.736C145.472 44.456 146.028 44.316 146.652 44.316C147.46 44.316 148.124 44.512 148.644 44.904C149.172 45.296 149.52 45.84 149.688 46.536H148.512C148.4 46.136 148.18 45.82 147.852 45.588C147.532 45.356 147.132 45.24 146.652 45.24C146.028 45.24 145.524 45.456 145.14 45.888C144.756 46.312 144.564 46.916 144.564 47.7C144.564 48.492 144.756 49.104 145.14 49.536C145.524 49.968 146.028 50.184 146.652 50.184C147.132 50.184 147.532 50.072 147.852 49.848C148.172 49.624 148.392 49.304 148.512 48.888H149.688C149.512 49.56 149.16 50.1 148.632 50.508C148.104 50.908 147.444 51.108 146.652 51.108C146.028 51.108 145.472 50.968 144.984 50.688C144.504 50.408 144.128 50.012 143.856 49.5C143.584 48.988 143.448 48.388 143.448 47.7ZM160.145 47.46C160.145 47.668 160.133 47.888 160.109 48.12H154.853C154.893 48.768 155.113 49.276 155.513 49.644C155.921 50.004 156.413 50.184 156.989 50.184C157.461 50.184 157.853 50.076 158.165 49.86C158.485 49.636 158.709 49.34 158.837 48.972H160.013C159.837 49.604 159.485 50.12 158.957 50.52C158.429 50.912 157.773 51.108 156.989 51.108C156.365 51.108 155.805 50.968 155.309 50.688C154.821 50.408 154.437 50.012 154.157 49.5C153.877 48.98 153.737 48.38 153.737 47.7C153.737 47.02 153.873 46.424 154.145 45.912C154.417 45.4 154.797 45.008 155.285 44.736C155.781 44.456 156.349 44.316 156.989 44.316C157.613 44.316 158.165 44.452 158.645 44.724C159.125 44.996 159.493 45.372 159.749 45.852C160.013 46.324 160.145 46.86 160.145 47.46ZM159.017 47.232C159.017 46.816 158.925 46.46 158.741 46.164C158.557 45.86 158.305 45.632 157.985 45.48C157.673 45.32 157.325 45.24 156.941 45.24C156.389 45.24 155.917 45.416 155.525 45.768C155.141 46.12 154.921 46.608 154.865 47.232H159.017ZM165.678 45.492C165.87 45.116 166.142 44.824 166.494 44.616C166.854 44.408 167.29 44.304 167.802 44.304V45.432H167.514C166.29 45.432 165.678 46.096 165.678 47.424V51H164.586V44.424H165.678V45.492ZM172.627 43.356C172.419 43.356 172.243 43.284 172.099 43.14C171.955 42.996 171.883 42.82 171.883 42.612C171.883 42.404 171.955 42.228 172.099 42.084C172.243 41.94 172.419 41.868 172.627 41.868C172.827 41.868 172.995 41.94 173.131 42.084C173.275 42.228 173.347 42.404 173.347 42.612C173.347 42.82 173.275 42.996 173.131 43.14C172.995 43.284 172.827 43.356 172.627 43.356ZM173.155 44.424V51H172.063V44.424H173.155ZM184.016 47.46C184.016 47.668 184.004 47.888 183.98 48.12H178.724C178.764 48.768 178.984 49.276 179.384 49.644C179.792 50.004 180.284 50.184 180.86 50.184C181.332 50.184 181.724 50.076 182.036 49.86C182.356 49.636 182.58 49.34 182.708 48.972H183.884C183.708 49.604 183.356 50.12 182.828 50.52C182.3 50.912 181.644 51.108 180.86 51.108C180.236 51.108 179.676 50.968 179.18 50.688C178.692 50.408 178.308 50.012 178.028 49.5C177.748 48.98 177.608 48.38 177.608 47.7C177.608 47.02 177.744 46.424 178.016 45.912C178.288 45.4 178.668 45.008 179.156 44.736C179.652 44.456 180.22 44.316 180.86 44.316C181.484 44.316 182.036 44.452 182.516 44.724C182.996 44.996 183.364 45.372 183.62 45.852C183.884 46.324 184.016 46.86 184.016 47.46ZM182.888 47.232C182.888 46.816 182.796 46.46 182.612 46.164C182.428 45.86 182.176 45.632 181.856 45.48C181.544 45.32 181.196 45.24 180.812 45.24C180.26 45.24 179.788 45.416 179.396 45.768C179.012 46.12 178.792 46.608 178.736 47.232H182.888ZM189.789 45.324V49.2C189.789 49.52 189.857 49.748 189.993 49.884C190.129 50.012 190.365 50.076 190.701 50.076H191.505V51H190.521C189.913 51 189.457 50.86 189.153 50.58C188.849 50.3 188.697 49.84 188.697 49.2V45.324H187.845V44.424H188.697V42.768H189.789V44.424H191.505V45.324H189.789Z" fill="#53B175"/>
</svg>
