<svg width="143" height="34" viewBox="0 0 143 34" fill="none" xmlns="http://www.w3.org/2000/svg">
<path d="M13.9568 5.84424C9.72704 5.84424 6.97839 7.5388 5.31051 10.7545H5.21711V8.75301C5.21711 7.31197 4.04293 6.15113 2.60189 6.15113C1.16084 6.15113 0 7.31197 0 8.75301V30.889C0 32.3301 1.16084 33.5043 2.60189 33.5043H2.8554C4.29644 33.5043 5.47063 32.3301 5.47063 30.889V17.7062C5.47063 13.3964 7.93908 10.5276 12.0621 10.5276C16.065 10.5276 17.9864 12.8493 17.9864 16.999V30.889C17.9864 32.3301 19.1472 33.5043 20.5882 33.5043H20.8418C22.2828 33.5043 23.4436 32.3301 23.4436 30.889V15.9716C23.4436 9.67368 20.0012 5.84424 13.9568 5.84424Z" fill="#53B175"/>
<path d="M40.3223 5.79083C32.6768 5.79083 27.6865 11.3682 27.6865 19.9211C27.6865 28.4873 32.6234 33.8245 40.5492 33.8245C45.4594 33.8245 49.5157 31.6496 51.3437 28.2604C52.0241 27.0195 51.0901 25.4851 49.6758 25.4851H48.2881C47.5943 25.4851 46.9938 25.8854 46.6336 26.4858C45.5795 28.3005 43.3645 29.3946 40.6559 29.3946C36.1727 29.3946 33.1972 26.2723 33.1972 21.5356V21.2153H50.6765C51.7173 21.2153 52.5712 20.3614 52.5712 19.3206V19.2939C52.5712 11.0079 47.8344 5.79083 40.3223 5.79083ZM33.2239 17.3325C33.5308 13.1295 36.3728 10.2474 40.309 10.2474C44.2852 10.2474 46.9805 13.0761 47.1006 17.3325H33.2239Z" fill="#53B175"/>
<path d="M78.0164 24.3109H76.562C75.7747 24.3109 75.0942 24.8046 74.8007 25.5385C73.8534 27.9535 71.6918 29.2478 68.6229 29.2478C64.233 29.2478 61.2709 25.7119 61.2709 19.8277C61.2709 14.0768 64.193 10.4075 68.5962 10.4075C71.7718 10.4075 73.8934 11.982 74.7607 14.2236C75.0542 14.9708 75.7347 15.4912 76.5486 15.4912H78.003C79.2706 15.4912 80.218 14.2503 79.8043 13.0494C78.4033 8.92644 74.4004 5.79083 68.5428 5.79083C60.8172 5.79083 55.7202 11.3148 55.7202 19.8277C55.7202 28.4873 60.8306 33.8245 68.5962 33.8245C74.1602 33.8245 78.2966 31.1025 79.8177 26.7927C80.2446 25.5785 79.3106 24.3109 78.0164 24.3109Z" fill="#53B175"/>
<path d="M94.4016 29.2078C94.3082 29.1945 94.2014 29.1811 94.108 29.1811C92.3067 28.9676 91.4661 27.8468 91.4661 25.7386V10.4609H94.5483C95.7492 10.4609 96.7099 9.48687 96.7099 8.29934C96.7099 7.11182 95.7492 6.15112 94.5483 6.15112H91.4661V2.72197C91.4661 1.97476 91.1592 1.29427 90.6655 0.80058C90.1718 0.306889 89.5047 0 88.7441 0C87.2497 0 86.0355 1.22756 86.0355 2.72197V6.15112H84.4077C83.2201 6.15112 82.2461 7.11182 82.2461 8.29934C82.2461 9.48687 83.2201 10.4609 84.4077 10.4609H86.0355V26.299C86.0355 31.5829 88.1437 33.6777 93.6143 33.6777C93.6277 33.6777 93.641 33.6777 93.641 33.6777C94.2681 33.6777 94.8419 33.4909 95.3222 33.1573C95.3356 33.1573 95.3489 33.144 95.3489 33.144C95.9093 32.7437 96.2829 32.0899 96.2829 31.356C96.2829 30.2619 95.469 29.3412 94.4016 29.2078Z" fill="#53B175"/>
<path d="M112.148 5.79083C107.878 5.79083 104.355 7.52542 102.554 10.2074C102.261 10.661 102.114 11.1547 102.114 11.6351C102.114 12.9694 103.181 14.2103 104.689 14.2103C105.57 14.2103 106.41 13.7433 106.824 12.9694C107.705 11.3148 109.586 10.3008 112.001 10.3008C115.657 10.3008 117.738 12.022 117.738 15.1443V15.4778C117.738 16.4786 116.965 17.3058 115.964 17.3592L110.36 17.6794C103.608 18.1064 99.9122 20.8818 99.9122 25.6719C99.9122 30.5554 103.688 33.7711 109.159 33.7711C112.882 33.7711 116.284 31.9164 117.792 28.9409H117.912V30.889C117.912 31.6095 118.205 32.2633 118.672 32.7437C119.153 33.2107 119.807 33.5042 120.527 33.5042C121.968 33.5042 123.129 32.3301 123.129 30.889V14.744C123.129 9.32673 118.819 5.79083 112.148 5.79083ZM117.738 23.2301C117.738 26.8194 114.67 29.4213 110.613 29.4213C107.464 29.4213 105.423 27.9135 105.423 25.5652C105.423 23.1501 107.371 21.7624 111.094 21.5356L117.738 21.0819V23.2301Z" fill="#53B175"/>
<path d="M140.542 5.87091C137.313 5.87091 134.804 7.71224 133.937 10.7544H133.844V8.753C133.844 7.31195 132.669 6.15111 131.242 6.15111C129.801 6.15111 128.626 7.31195 128.626 8.753V30.7689C128.626 31.5161 128.933 32.21 129.427 32.7037C129.921 33.1974 130.601 33.5043 131.362 33.5043C132.87 33.5043 134.097 32.2767 134.097 30.7689V17.1858C134.097 13.3296 136.365 10.8345 139.968 10.8345C140.115 10.8345 140.275 10.8345 140.422 10.8478C141.542 10.8879 142.45 9.96721 142.45 8.8464V7.7923C142.45 6.73821 141.596 5.87091 140.542 5.87091Z" fill="#53B175"/>
<path d="M96.2831 31.356C96.2831 32.0899 95.9095 32.7437 95.3491 33.144C95.3491 33.144 95.3357 33.1573 95.3224 33.1573C94.9755 33.3975 94.5618 33.5309 94.1082 33.5309C92.894 33.5309 91.9199 32.5569 91.9199 31.356C91.9199 30.1551 92.894 29.1811 94.1082 29.1811C94.2016 29.1811 94.3083 29.1944 94.4017 29.2078C95.4692 29.3412 96.2831 30.2619 96.2831 31.356Z" fill="#53B175"/>
</svg>
